<svg width="703" height="604" viewBox="0 0 703 604" fill="none" xmlns="http://www.w3.org/2000/svg">
<rect width="703" height="604" fill="white"/>
<g id="Group 1">
<g id="Layer 1">
<g id="Group" opacity="0.15">
<path id="Vector" opacity="0.15" d="M665 603.724H3C2.20435 603.724 1.44129 603.408 0.878677 602.845C0.316068 602.283 0 601.52 0 600.724C0 599.928 0.316068 599.165 0.878677 598.603C1.44129 598.04 2.20435 597.724 3 597.724H665C665.796 597.724 666.559 598.04 667.121 598.603C667.684 599.165 668 599.928 668 600.724C668 601.52 667.684 602.283 667.121 602.845C666.559 603.408 665.796 603.724 665 603.724Z" fill="#474747"/>
<path id="Vector_2" opacity="0.15" d="M566.524 603.724C565.728 603.724 564.965 603.408 564.403 602.845C563.84 602.283 563.524 601.52 563.524 600.724V275.424C563.524 274.628 563.84 273.865 564.403 273.303C564.965 272.74 565.728 272.424 566.524 272.424C567.32 272.424 568.083 272.74 568.645 273.303C569.208 273.865 569.524 274.628 569.524 275.424V600.724C569.524 601.52 569.208 602.283 568.645 602.845C568.083 603.408 567.32 603.724 566.524 603.724Z" fill="#474747"/>
<path id="Vector_3" opacity="0.15" d="M566.524 423.035C538.999 423.035 519.419 411.608 508.324 389.073C479.32 330.129 518.9 210.187 538.079 185.282C546.251 174.667 556.885 168.329 566.524 168.329C576.163 168.329 586.797 174.667 594.969 185.282C614.144 210.188 653.727 330.131 624.718 389.073C613.627 411.608 594.048 423.035 566.524 423.035ZM566.524 174.329C558.734 174.329 549.878 179.792 542.833 188.942C533.917 200.522 519.612 235.908 511.108 275.079C500.808 322.531 501.729 362.079 513.708 386.424C523.708 406.736 541.473 417.035 566.52 417.035C591.567 417.035 609.334 406.735 619.331 386.424C631.315 362.075 632.239 322.531 621.937 275.079C613.431 235.909 599.126 200.523 590.211 188.942C583.17 179.792 574.314 174.329 566.524 174.329V174.329Z" fill="#474747"/>
<path id="Vector_4" opacity="0.15" d="M566.524 328.456C565.931 328.456 565.351 328.28 564.858 327.95C564.364 327.621 563.98 327.152 563.753 326.604C563.526 326.056 563.467 325.453 563.582 324.871C563.698 324.289 563.984 323.755 564.403 323.335L589.603 298.135C590.169 297.588 590.927 297.286 591.713 297.293C592.5 297.3 593.252 297.615 593.808 298.172C594.365 298.728 594.68 299.48 594.687 300.267C594.694 301.053 594.391 301.811 593.845 302.377L568.645 327.577C568.367 327.856 568.036 328.077 567.672 328.228C567.308 328.379 566.918 328.456 566.524 328.456Z" fill="#474747"/>
<path id="Vector_5" opacity="0.15" d="M566.524 387.166C566.13 387.167 565.74 387.089 565.376 386.938C565.012 386.787 564.681 386.566 564.403 386.287L530.124 352.008C529.578 351.442 529.275 350.684 529.282 349.898C529.289 349.111 529.604 348.359 530.161 347.803C530.717 347.246 531.469 346.931 532.256 346.924C533.042 346.917 533.8 347.219 534.366 347.766L568.645 382.045C569.064 382.464 569.35 382.999 569.466 383.581C569.581 384.163 569.522 384.766 569.295 385.314C569.068 385.862 568.684 386.331 568.19 386.66C567.697 386.99 567.117 387.166 566.524 387.166Z" fill="#474747"/>
<path id="Vector_6" opacity="0.15" d="M649.662 458.458C676.938 458.458 699.049 436.347 699.049 409.071C699.049 381.795 676.938 359.684 649.662 359.684C622.386 359.684 600.275 381.795 600.275 409.071C600.275 436.347 622.386 458.458 649.662 458.458Z" fill="white"/>
<path id="Vector_7" opacity="0.15" d="M649.662 461.458C639.301 461.458 629.172 458.386 620.556 452.629C611.941 446.873 605.226 438.691 601.261 429.118C597.296 419.546 596.258 409.012 598.28 398.85C600.301 388.687 605.29 379.353 612.617 372.026C619.944 364.699 629.278 359.71 639.441 357.689C649.603 355.667 660.137 356.705 669.709 360.67C679.282 364.635 687.464 371.35 693.22 379.965C698.977 388.581 702.049 398.71 702.049 409.071C702.033 422.96 696.509 436.276 686.688 446.097C676.867 455.918 663.551 461.442 649.662 461.458V461.458ZM649.662 362.683C640.487 362.683 631.519 365.403 623.89 370.5C616.261 375.597 610.316 382.842 606.804 391.318C603.293 399.795 602.374 409.122 604.164 418.12C605.954 427.119 610.372 435.384 616.859 441.872C623.347 448.359 631.612 452.778 640.611 454.568C649.609 456.358 658.936 455.439 667.413 451.928C675.889 448.417 683.134 442.471 688.231 434.843C693.328 427.214 696.049 418.246 696.049 409.071C696.035 396.772 691.144 384.982 682.447 376.285C673.751 367.589 661.96 362.697 649.662 362.683V362.683Z" fill="#474747"/>
<path id="Vector_8" opacity="0.15" d="M566.524 495.274C565.931 495.274 565.351 495.098 564.858 494.768C564.364 494.438 563.98 493.97 563.753 493.422C563.526 492.874 563.467 492.271 563.582 491.689C563.698 491.107 563.984 490.573 564.403 490.153L655.768 398.789C656.334 398.242 657.092 397.94 657.878 397.947C658.665 397.954 659.417 398.269 659.973 398.826C660.53 399.382 660.845 400.134 660.852 400.921C660.859 401.707 660.556 402.465 660.01 403.031L568.645 494.4C568.366 494.678 568.036 494.898 567.672 495.048C567.308 495.198 566.918 495.275 566.524 495.274V495.274Z" fill="#474747"/>
<path id="Vector_9" opacity="0.15" d="M659.822 441.075H620.722C619.926 441.075 619.163 440.759 618.601 440.196C618.038 439.634 617.722 438.871 617.722 438.075C617.722 437.279 618.038 436.516 618.601 435.954C619.163 435.391 619.926 435.075 620.722 435.075H659.822C660.618 435.075 661.381 435.391 661.943 435.954C662.506 436.516 662.822 437.279 662.822 438.075C662.822 438.871 662.506 439.634 661.943 440.196C661.381 440.759 660.618 441.075 659.822 441.075Z" fill="#474747"/>
<path id="Vector_10" opacity="0.15" d="M640.273 421.525C639.477 421.525 638.714 421.209 638.152 420.646C637.589 420.084 637.273 419.321 637.273 418.525V400.91C637.273 400.114 637.589 399.351 638.152 398.789C638.714 398.226 639.477 397.91 640.273 397.91C641.069 397.91 641.832 398.226 642.394 398.789C642.957 399.351 643.273 400.114 643.273 400.91V418.525C643.273 419.321 642.957 420.084 642.394 420.646C641.832 421.209 641.069 421.525 640.273 421.525V421.525Z" fill="#474747"/>
<path id="Vector_11" opacity="0.15" d="M566.524 554.751C566.13 554.752 565.74 554.674 565.376 554.523C565.012 554.372 564.681 554.151 564.403 553.872L482.343 471.812C482.056 471.535 481.828 471.204 481.671 470.838C481.513 470.472 481.431 470.078 481.427 469.68C481.424 469.282 481.5 468.887 481.651 468.518C481.801 468.149 482.024 467.814 482.306 467.533C482.587 467.251 482.922 467.028 483.291 466.878C483.66 466.727 484.055 466.651 484.453 466.654C484.852 466.658 485.245 466.74 485.611 466.898C485.977 467.055 486.308 467.283 486.585 467.57L568.645 549.63C569.064 550.05 569.35 550.584 569.466 551.166C569.581 551.748 569.522 552.351 569.295 552.899C569.068 553.447 568.684 553.915 568.19 554.245C567.697 554.575 567.117 554.751 566.524 554.751V554.751Z" fill="#474747"/>
<path id="Vector_12" opacity="0.15" d="M509.6 530.813C504.774 530.78 499.979 530.046 495.364 528.633C481.835 524.592 469.079 515.333 459.445 502.563C439.353 475.928 439.233 442.016 459.178 426.971C479.123 411.926 511.698 421.355 531.789 447.99C551.883 474.626 552.003 508.537 532.058 523.583C525.571 528.397 517.677 530.938 509.6 530.813V530.813ZM481.712 425.746C474.916 425.617 468.268 427.731 462.795 431.761C445.495 444.814 446.139 474.955 464.239 498.95C473.109 510.707 484.773 519.207 497.086 522.884C509.071 526.463 520.208 525.01 528.448 518.794C545.748 505.739 545.105 475.599 527.004 451.603C514.561 435.109 497.058 425.746 481.712 425.746Z" fill="#474747"/>
<path id="Vector_13" opacity="0.15" d="M525.794 514.021C524.998 514.021 524.235 513.705 523.673 513.142C523.11 512.58 522.794 511.817 522.794 511.021V484.537C522.794 483.741 523.11 482.978 523.673 482.416C524.235 481.853 524.998 481.537 525.794 481.537C526.59 481.537 527.353 481.853 527.915 482.416C528.478 482.978 528.794 483.741 528.794 484.537V511.021C528.794 511.817 528.478 512.58 527.915 513.142C527.353 513.705 526.59 514.021 525.794 514.021Z" fill="#474747"/>
<path id="Vector_14" opacity="0.15" d="M504.774 493H484.464C483.668 493 482.905 492.684 482.343 492.121C481.78 491.559 481.464 490.796 481.464 490C481.464 489.204 481.78 488.441 482.343 487.879C482.905 487.316 483.668 487 484.464 487H504.774C505.57 487 506.333 487.316 506.895 487.879C507.458 488.441 507.774 489.204 507.774 490C507.774 490.796 507.458 491.559 506.895 492.121C506.333 492.684 505.57 493 504.774 493Z" fill="#474747"/>
<path id="Vector_15" opacity="0.15" d="M94.675 600.1H72.375C71.5794 600.1 70.8163 599.784 70.2537 599.221C69.6911 598.659 69.375 597.896 69.375 597.1V541.925C69.375 541.129 69.6911 540.366 70.2537 539.804C70.8163 539.241 71.5794 538.925 72.375 538.925H94.675C95.4706 538.925 96.2337 539.241 96.7963 539.804C97.3589 540.366 97.675 541.129 97.675 541.925V597.1C97.675 597.896 97.3589 598.659 96.7963 599.221C96.2337 599.784 95.4706 600.1 94.675 600.1ZM75.375 594.1H91.675V544.925H75.375V594.1Z" fill="#474747"/>
<path id="Vector_16" opacity="0.15" d="M325.276 600.1H302.976C302.18 600.1 301.417 599.784 300.855 599.221C300.292 598.659 299.976 597.896 299.976 597.1V541.925C299.976 541.129 300.292 540.366 300.855 539.804C301.417 539.241 302.18 538.925 302.976 538.925H325.276C326.072 538.925 326.835 539.241 327.397 539.804C327.96 540.366 328.276 541.129 328.276 541.925V597.1C328.276 597.896 327.96 598.659 327.397 599.221C326.835 599.784 326.072 600.1 325.276 600.1ZM305.976 594.1H322.276V544.925H305.976V594.1Z" fill="#474747"/>
<path id="Vector_17" opacity="0.15" d="M102.36 519.754H86.747C85.9514 519.754 85.1883 519.438 84.6257 518.875C84.0631 518.313 83.747 517.55 83.747 516.754V398.454C83.747 397.658 84.0631 396.895 84.6257 396.333C85.1883 395.77 85.9514 395.454 86.747 395.454H102.36C103.156 395.454 103.919 395.77 104.481 396.333C105.044 396.895 105.36 397.658 105.36 398.454V516.754C105.36 517.55 105.044 518.313 104.481 518.875C103.919 519.438 103.156 519.754 102.36 519.754ZM89.747 513.754H99.36V401.454H89.747V513.754Z" fill="#474747"/>
<path id="Vector_18" opacity="0.15" d="M310.9 519.754H295.286C294.49 519.754 293.727 519.438 293.165 518.875C292.602 518.313 292.286 517.55 292.286 516.754V398.454C292.286 397.658 292.602 396.895 293.165 396.333C293.727 395.77 294.49 395.454 295.286 395.454H310.9C311.696 395.454 312.459 395.77 313.021 396.333C313.584 396.895 313.9 397.658 313.9 398.454V516.754C313.9 517.55 313.584 518.313 313.021 518.875C312.459 519.438 311.696 519.754 310.9 519.754V519.754ZM298.286 513.754H307.9V401.454H298.286V513.754Z" fill="#474747"/>
<path id="Vector_19" opacity="0.15" d="M348.055 416.531H35.804V449.986H348.055V416.531Z" fill="white"/>
<path id="Vector_20" opacity="0.15" d="M348.056 452.987H35.8C35.0043 452.987 34.2413 452.671 33.6787 452.108C33.1161 451.546 32.8 450.783 32.8 449.987V416.531C32.8 415.735 33.1161 414.972 33.6787 414.41C34.2413 413.847 35.0043 413.531 35.8 413.531H348.056C348.852 413.531 349.615 413.847 350.177 414.41C350.74 414.972 351.056 415.735 351.056 416.531V449.987C351.056 450.783 350.74 451.546 350.177 452.108C349.615 452.671 348.852 452.987 348.056 452.987ZM38.804 446.987H345.056V419.531H38.8L38.804 446.987Z" fill="#474747"/>
<path id="Vector_21" opacity="0.15" d="M348.055 449.987H35.804V483.442H348.055V449.987Z" fill="white"/>
<path id="Vector_22" opacity="0.15" d="M348.056 486.442H35.8C35.0043 486.442 34.2413 486.126 33.6787 485.563C33.1161 485.001 32.8 484.238 32.8 483.442V449.987C32.8 449.191 33.1161 448.428 33.6787 447.866C34.2413 447.303 35.0043 446.987 35.8 446.987H348.056C348.852 446.987 349.615 447.303 350.177 447.866C350.74 448.428 351.056 449.191 351.056 449.987V483.442C351.056 484.238 350.74 485.001 350.177 485.563C349.615 486.126 348.852 486.442 348.056 486.442ZM38.804 480.442H345.056V452.987H38.8L38.804 480.442Z" fill="#474747"/>
<path id="Vector_23" opacity="0.15" d="M303.093 441.949C301.617 441.949 300.175 441.511 298.948 440.692C297.721 439.872 296.765 438.706 296.2 437.343C295.635 435.98 295.487 434.48 295.775 433.032C296.063 431.585 296.774 430.256 297.817 429.212C298.861 428.169 300.19 427.458 301.637 427.17C303.085 426.882 304.585 427.03 305.948 427.595C307.312 428.16 308.477 429.116 309.297 430.343C310.116 431.57 310.554 433.012 310.554 434.488C310.552 436.466 309.765 438.363 308.366 439.761C306.968 441.16 305.071 441.947 303.093 441.949ZM303.093 433.027C302.804 433.027 302.522 433.113 302.281 433.273C302.041 433.434 301.854 433.662 301.743 433.929C301.633 434.196 301.604 434.49 301.66 434.773C301.716 435.056 301.856 435.317 302.06 435.521C302.264 435.725 302.525 435.864 302.808 435.921C303.091 435.977 303.385 435.948 303.652 435.838C303.919 435.727 304.147 435.54 304.308 435.3C304.468 435.059 304.554 434.777 304.554 434.488C304.553 434.101 304.399 433.729 304.125 433.455C303.852 433.182 303.48 433.027 303.093 433.027V433.027Z" fill="#474747"/>
<path id="Vector_24" opacity="0.15" d="M303.093 474.176C301.617 474.176 300.175 473.738 298.948 472.919C297.721 472.099 296.765 470.933 296.2 469.57C295.635 468.207 295.487 466.707 295.775 465.259C296.063 463.812 296.774 462.483 297.817 461.439C298.861 460.396 300.19 459.685 301.637 459.397C303.085 459.109 304.585 459.257 305.948 459.822C307.312 460.387 308.477 461.343 309.297 462.57C310.116 463.797 310.554 465.239 310.554 466.715C310.552 468.693 309.765 470.59 308.366 471.988C306.968 473.387 305.071 474.174 303.093 474.176V474.176ZM303.093 465.254C302.804 465.254 302.522 465.34 302.281 465.5C302.041 465.661 301.854 465.889 301.743 466.156C301.633 466.423 301.604 466.717 301.66 467C301.716 467.283 301.856 467.544 302.06 467.748C302.264 467.952 302.525 468.092 302.808 468.148C303.091 468.204 303.385 468.175 303.652 468.065C303.919 467.954 304.147 467.767 304.308 467.527C304.468 467.286 304.554 467.004 304.554 466.715C304.554 466.328 304.4 465.956 304.126 465.682C303.852 465.408 303.48 465.254 303.093 465.254Z" fill="#474747"/>
<path id="Vector_25" opacity="0.15" d="M94.554 441.949C93.0784 441.949 91.6359 441.511 90.4089 440.692C89.182 439.872 88.2257 438.706 87.661 437.343C87.0963 435.98 86.9485 434.48 87.2364 433.032C87.5243 431.585 88.2349 430.256 89.2783 429.212C90.3217 428.169 91.6511 427.458 93.0984 427.17C94.5457 426.882 96.0459 427.03 97.4092 427.595C98.7726 428.16 99.9378 429.116 100.758 430.343C101.577 431.57 102.015 433.012 102.015 434.488C102.013 436.466 101.226 438.363 99.8274 439.761C98.4287 441.16 96.5321 441.947 94.554 441.949V441.949ZM94.554 433.027C94.265 433.027 93.9826 433.113 93.7423 433.273C93.5021 433.434 93.3148 433.662 93.2042 433.929C93.0937 434.196 93.0647 434.49 93.1211 434.773C93.1775 435.056 93.3166 435.317 93.5209 435.521C93.7253 435.725 93.9856 435.864 94.269 435.921C94.5524 435.977 94.8462 435.948 95.1131 435.838C95.3801 435.727 95.6083 435.54 95.7688 435.3C95.9293 435.059 96.015 434.777 96.015 434.488C96.0145 434.101 95.8604 433.729 95.5865 433.455C95.3126 433.182 94.9413 433.027 94.554 433.027V433.027Z" fill="#474747"/>
<path id="Vector_26" opacity="0.15" d="M94.554 474.176C93.0784 474.176 91.6359 473.738 90.4089 472.919C89.182 472.099 88.2257 470.933 87.661 469.57C87.0963 468.207 86.9485 466.707 87.2364 465.259C87.5243 463.812 88.2349 462.483 89.2783 461.439C90.3217 460.396 91.6511 459.685 93.0984 459.397C94.5457 459.109 96.0459 459.257 97.4092 459.822C98.7726 460.387 99.9378 461.343 100.758 462.57C101.577 463.797 102.015 465.239 102.015 466.715C102.013 468.693 101.226 470.59 99.8274 471.988C98.4287 473.387 96.5321 474.174 94.554 474.176ZM94.554 465.254C94.265 465.254 93.9826 465.34 93.7423 465.5C93.5021 465.661 93.3148 465.889 93.2042 466.156C93.0937 466.423 93.0647 466.717 93.1211 467C93.1775 467.283 93.3166 467.544 93.5209 467.748C93.7253 467.952 93.9856 468.092 94.269 468.148C94.5524 468.204 94.8462 468.175 95.1131 468.065C95.3801 467.954 95.6083 467.767 95.7688 467.527C95.9293 467.286 96.015 467.004 96.015 466.715C96.0148 466.328 95.8607 465.956 95.5868 465.682C95.3129 465.408 94.9414 465.254 94.554 465.254Z" fill="#474747"/>
<path id="Vector_27" opacity="0.15" d="M373.277 544.925H19.763C18.9674 544.925 18.2043 544.609 17.6417 544.046C17.0791 543.484 16.763 542.721 16.763 541.925V516.754C16.763 515.958 17.0791 515.195 17.6417 514.633C18.2043 514.07 18.9674 513.754 19.763 513.754H373.277C374.073 513.754 374.836 514.07 375.398 514.633C375.961 515.195 376.277 515.958 376.277 516.754V541.925C376.277 542.721 375.961 543.484 375.398 544.046C374.836 544.609 374.073 544.925 373.277 544.925ZM22.763 538.925H370.277V519.754H22.763V538.925Z" fill="#474747"/>
</g>
<path id="Vector_28" d="M256 564.62L259.958 593.243C260.55 597.524 264.558 600.723 269.326 600.723H397.5C402.272 600.723 406.276 597.523 406.868 593.243L410.826 564.62H256Z" fill="#D6D6D4"/>
<path id="Vector_29" d="M394.739 600.723L404.069 598.312L410.826 564.62H256L257.521 575.62H385.521C403.791 575.621 394.739 600.723 394.739 600.723Z" fill="#BABABA"/>
<path id="Vector_30" d="M426.342 554.936L461.3 275.426H205.52L240.481 554.936C240.839 557.634 242.172 560.109 244.228 561.893C246.284 563.676 248.922 564.647 251.644 564.62H415.179C417.901 564.647 420.539 563.676 422.595 561.893C424.651 560.109 425.984 557.634 426.342 554.936V554.936Z" fill="#5EB173"/>
<path id="red-part" d="M426.342 554.936L461.3 275.426H205.52L240.481 554.936C240.839 557.634 242.172 560.109 244.228 561.893C246.284 563.676 248.922 564.647 251.644 564.62H415.179C417.901 564.647 420.539 563.676 422.595 561.893C424.651 560.109 425.984 557.634 426.342 554.936V554.936Z" fill="#E66B6B"/>
<g id="Vector_31" style="mix-blend-mode:multiply" opacity="0.34">
<path d="M326.3 504.194C324.452 504.164 322.668 503.513 321.235 502.345C320.075 501.274 319.152 499.973 318.525 498.524C317.898 497.075 317.581 495.511 317.595 493.932C317.471 491.839 317.784 489.744 318.514 487.779C319.244 485.814 320.376 484.023 321.836 482.519C322.597 481.79 324.91 479.568 327.923 479.568C328.236 479.568 328.549 479.593 328.858 479.641C329.938 479.87 330.958 480.322 331.853 480.968C332.749 481.613 333.5 482.439 334.058 483.391C335.14 485.097 335.871 487.001 336.209 488.993C336.547 490.985 336.485 493.024 336.026 494.991C334.914 499.348 331.206 504.054 326.526 504.191L326.3 504.194ZM327.29 490.439C326.421 492.516 326.62 493.867 326.869 494.095C326.897 494.118 326.927 494.138 326.958 494.156C327.179 493.887 327.347 493.578 327.452 493.246C327.716 492.318 327.657 491.329 327.285 490.439H327.29Z" fill="#60A06C"/>
</g>
<g id="Vector_32" style="mix-blend-mode:multiply" opacity="0.34">
<path d="M337.92 516.587C336.632 516.599 335.369 516.225 334.294 515.515C332.055 514.015 332.221 512.039 332.839 504.709C333.23 500.068 333.821 493.055 334.318 482.003C334.343 481.439 334.377 480.877 334.418 480.316H334.227C333.991 480.316 333.764 480.326 333.545 480.347C332.751 480.421 331.955 480.453 331.159 480.483C330.295 480.517 329.479 480.549 328.681 480.639C328.347 480.677 328.051 480.714 327.79 480.747C327.291 480.823 326.788 480.869 326.284 480.883C325.883 480.9 325.483 480.833 325.109 480.685C324.736 480.538 324.397 480.315 324.115 480.029C322.056 477.883 324.315 473.401 326.049 471.701C326.807 471.01 327.695 470.476 328.662 470.131C329.628 469.787 330.654 469.638 331.678 469.694C333.228 469.724 334.769 469.935 336.27 470.323C337.079 467.584 338.735 465.172 341 463.432C342.713 462.148 344.779 461.421 346.918 461.349C347.32 461.349 347.721 461.378 348.118 461.437C349.652 461.62 351.083 462.301 352.192 463.376C353.45 464.69 354.143 466.444 354.122 468.263C354.965 467.966 355.851 467.812 356.745 467.808C357.104 467.808 357.463 467.835 357.818 467.888C359.203 468.055 360.496 468.671 361.498 469.642C362.244 470.475 362.777 471.477 363.051 472.561C363.325 473.645 363.331 474.78 363.07 475.867L362.677 477.575C362.986 477.448 363.269 477.264 363.511 477.034C364.192 476.268 364.573 475.281 364.583 474.256L364.933 470.147L370.075 474.956L370.237 475.279C371.137 477.079 370.531 479.409 368.485 482.013C366.985 483.93 364.098 484.862 359.668 484.862C358.21 484.855 356.753 484.77 355.303 484.61C354.926 488.038 354.767 491.487 354.825 494.935C354.878 496.971 354.939 498.787 354.993 500.409C355.293 509.278 355.413 512.949 352.552 515.047C351.503 515.799 350.243 516.2 348.952 516.193V516.193C347.783 516.203 346.637 515.864 345.661 515.219C345.182 514.927 344.78 514.523 344.491 514.041C344.201 513.56 344.033 513.016 344 512.455C343.617 513.607 342.882 514.609 341.9 515.322C340.74 516.154 339.347 516.596 337.92 516.587V516.587ZM344.72 482.543C344.276 487.543 344.391 492.309 344.392 492.364C344.452 494.711 344.523 496.807 344.585 498.679C344.61 499.448 344.636 500.179 344.657 500.887C344.942 497.187 345.266 492.351 345.557 485.956C345.606 484.872 345.683 483.824 345.787 482.822C345.431 482.729 345.076 482.637 344.724 482.543H344.72ZM357.552 477.561C358.543 477.786 359.555 477.909 360.571 477.927C360.872 477.928 361.172 477.911 361.471 477.876L360.171 477.183C359.825 476.988 359.437 476.881 359.04 476.87C358.952 476.87 358.865 476.877 358.778 476.89C358.326 477.02 357.908 477.249 357.556 477.561H357.552ZM347.824 474.339C348.316 473.204 348.97 472.147 349.765 471.199C349.7 471.199 349.637 471.191 349.573 471.191C349.445 471.191 349.317 471.202 349.19 471.223C348.43 471.444 347.749 471.878 347.228 472.474C346.897 472.872 346.634 473.32 346.448 473.803L347.824 474.339Z" fill="#60A06C"/>
</g>
<g id="Vector_33" style="mix-blend-mode:multiply" opacity="0.34">
<path d="M360.506 506.655C358.458 506.745 356.457 506.019 354.943 504.637C353.019 502.712 352.392 499.275 353.222 495.209C354.122 490.795 357.048 484.885 362.322 482.759C363.71 482.211 365.186 481.918 366.678 481.893C368.428 481.837 370.138 482.42 371.49 483.533C372.587 484.564 373.377 485.878 373.772 487.33C374.167 488.782 374.152 490.316 373.729 491.76C373.361 492.957 372.739 494.061 371.906 494.997C371.073 495.932 370.049 496.677 368.902 497.181C369.214 497.575 369.404 498.052 369.449 498.553C369.472 499.596 369.28 500.633 368.886 501.6C368.491 502.566 367.903 503.441 367.157 504.171C365.337 505.815 362.958 506.704 360.506 506.655ZM365.6 489.829C365.247 489.973 364.916 490.164 364.615 490.398C364.958 490.236 365.288 490.045 365.6 489.829V489.829Z" fill="#60A06C"/>
</g>
<g id="Vector_34" style="mix-blend-mode:multiply" opacity="0.34">
<path d="M376.6 507.067C374.398 507.125 372.262 506.314 370.653 504.81C368.753 502.86 368.112 499.572 368.893 495.789C369.893 490.95 372.877 486.854 376.501 485.355C377.828 484.822 379.243 484.545 380.673 484.537C381.667 484.485 382.66 484.65 383.584 485.02C384.508 485.39 385.34 485.957 386.023 486.681C388.255 489.219 387.445 492.713 387.145 493.723C386.527 495.718 385.217 497.427 383.451 498.542C383.83 498.965 384.057 499.503 384.093 500.07C384.112 501.032 383.928 501.987 383.554 502.873C383.179 503.76 382.622 504.557 381.919 505.214C380.437 506.469 378.541 507.13 376.6 507.067V507.067Z" fill="#60A06C"/>
</g>
<g id="Vector_35" style="mix-blend-mode:multiply" opacity="0.34">
<path d="M303.411 515.021C301.848 515.025 300.293 514.797 298.797 514.346C293.843 512.838 289.846 508.754 287.54 502.846C285.047 496.458 285.795 488.357 289.425 481.076C288.002 481.439 286.654 482.053 285.446 482.889C284.396 483.695 283.144 484.196 281.828 484.337C281.153 484.34 280.496 484.123 279.956 483.719C278.811 482.864 278.241 481.255 278.356 479.189C278.485 476.835 279.581 473.527 282.249 471.955C283.309 471.35 284.513 471.042 285.733 471.066C288.346 471.066 291.328 472.243 294.439 473.689C297.145 470.548 300.636 468.181 304.556 466.831C306.407 466.22 308.339 465.891 310.288 465.856C311.397 465.779 312.51 465.944 313.548 466.342C314.587 466.739 315.526 467.358 316.3 468.156C319.28 471.53 317.928 477.642 314.8 481.231C313.294 482.959 310.465 485.079 305.544 485.367C305.277 485.383 305.018 485.391 304.765 485.391C302.949 485.334 301.151 485.012 299.428 484.436C298.975 484.308 298.544 484.175 298.128 484.036C296.191 490.741 297.079 497.894 300.373 500.636C301.641 501.695 303.223 502.306 304.873 502.373C305.255 502.374 305.637 502.33 306.009 502.242C306.122 502.216 308.769 501.56 309.34 499.442C309.48 498.937 309.504 498.406 309.411 497.89C309.318 497.374 309.109 496.886 308.801 496.462C308.37 496.018 307.835 495.687 307.245 495.5C306.651 495.258 305.069 494.617 305.213 492.925C305.374 491.01 307.764 490.138 309.913 490.138C310.506 490.136 311.096 490.208 311.671 490.353C316.302 491.547 319.648 498.078 318.557 503.792C317.785 507.182 315.728 510.14 312.818 512.044C310.065 513.99 306.776 515.031 303.405 515.023L303.411 515.021ZM301.45 477.221C302.304 477.767 303.283 478.087 304.294 478.154C304.478 478.153 304.662 478.142 304.845 478.119C306.569 477.909 308.578 476.879 309.082 475.319C309.303 474.765 309.316 474.149 309.119 473.586C308.876 473.457 308.6 473.404 308.326 473.434C307.03 473.518 305.767 473.876 304.621 474.485L304.477 474.563C303.301 475.239 302.272 476.143 301.45 477.223V477.221Z" fill="#60A06C"/>
</g>
<path id="Vector_36" d="M205.52 275.426L208.269 297.409H421.031C422.947 297.409 424.842 297.816 426.589 298.604C428.336 299.392 429.895 300.543 431.163 301.979C432.432 303.416 433.38 305.106 433.945 306.937C434.511 308.768 434.68 310.698 434.443 312.6L412.264 542.58C411.85 546.871 410.044 550.91 407.122 554.079C404.199 557.249 400.32 559.375 396.076 560.135L371.029 564.617L406.649 564.641L406.656 564.617H415.179C417.901 564.644 420.539 563.673 422.595 561.89C424.651 560.106 425.984 557.631 426.342 554.933L461.3 275.426H205.52Z" fill="#DE5B5B"/>
<path id="Vector_37" d="M397.5 603.724H269.323C263.082 603.724 257.778 599.394 256.984 593.654L253.026 565.031C252.967 564.606 253 564.174 253.123 563.763C253.245 563.352 253.455 562.972 253.736 562.648C254.018 562.325 254.366 562.066 254.757 561.889C255.147 561.711 255.571 561.62 256 561.62H410.826C411.255 561.62 411.678 561.712 412.069 561.889C412.459 562.067 412.807 562.326 413.088 562.649C413.37 562.972 413.579 563.352 413.701 563.763C413.824 564.174 413.857 564.606 413.798 565.031L409.84 593.654C409.045 599.394 403.74 603.724 397.5 603.724ZM259.441 567.624L262.927 592.836C263.313 595.625 266.063 597.728 269.327 597.728H397.5C400.761 597.728 403.511 595.628 403.9 592.836L407.386 567.624H259.441Z" fill="#474747"/>
<path id="Vector_38" d="M415.179 567.62H251.644C248.193 567.638 244.854 566.398 242.251 564.132C239.649 561.866 237.961 558.729 237.505 555.308L202.543 275.8C202.49 275.378 202.528 274.949 202.653 274.543C202.779 274.136 202.989 273.761 203.271 273.442C203.552 273.124 203.899 272.868 204.286 272.693C204.674 272.518 205.095 272.428 205.52 272.428H461.3C461.725 272.428 462.146 272.519 462.533 272.694C462.921 272.869 463.267 273.124 463.548 273.443C463.83 273.762 464.04 274.137 464.166 274.543C464.291 274.95 464.329 275.378 464.276 275.8L429.315 555.31C428.858 558.73 427.171 561.866 424.569 564.132C421.967 566.397 418.629 567.637 415.179 567.62V567.62ZM208.918 278.426L243.458 554.563C243.731 556.533 244.713 558.337 246.22 559.636C247.726 560.935 249.655 561.64 251.644 561.62H415.179C417.168 561.64 419.097 560.935 420.603 559.636C422.11 558.337 423.092 556.533 423.365 554.563L426.342 554.935L423.365 554.563L457.905 278.426H208.918Z" fill="#474747"/>
<path id="Vector_39" d="M466.808 275.426H200.015C191.325 275.505 192.521 270.84 195.532 261.884C197.326 256.619 197.326 250.908 195.532 245.643C192.522 236.688 191.325 232.023 200.015 232.102H466.808C475.498 232.023 474.301 236.687 471.291 245.643C469.497 250.908 469.497 256.619 471.291 261.884C474.3 270.84 475.5 275.505 466.808 275.426Z" fill="#646464"/>
<path id="Vector_40" d="M471.291 245.643C473.235 239.86 474.418 235.87 472.676 233.787C472.301 235.104 471.825 236.556 471.291 238.147C469.995 241.962 469.634 246.032 470.238 250.015C470.457 248.529 470.81 247.066 471.291 245.643V245.643Z" fill="#7C7C7C"/>
<path id="Vector_41" d="M196.585 250.015C197.189 246.032 196.828 241.962 195.532 238.147C194.998 236.556 194.522 235.104 194.147 233.787C192.405 235.87 193.588 239.86 195.532 245.643C196.013 247.066 196.365 248.529 196.585 250.015V250.015Z" fill="#7C7C7C"/>
<path id="Vector_42" d="M472.676 266.244C471.72 267.387 469.887 267.957 466.808 267.929H200.015C196.936 267.957 195.103 267.386 194.147 266.244C192.41 272.344 192.868 275.49 200.015 275.426H466.808C473.955 275.491 474.413 272.344 472.676 266.244Z" fill="#7C7C7C"/>
<g id="Group_2" style="mix-blend-mode:overlay">
<g id="Vector_43" style="mix-blend-mode:overlay">
<path d="M471.291 261.884C471.127 261.405 470.991 260.919 470.862 260.433C469.564 265.151 469.67 270.145 471.167 274.804C474.889 273.265 473.645 268.886 471.291 261.884Z" fill="#646464"/>
</g>
<g id="Vector_44" style="mix-blend-mode:overlay">
<path d="M196.862 255.546C197.901 255.117 201.773 245.441 207.762 245.441H461.3C468.54 245.441 469.821 260.004 470.859 260.433C470.904 260.295 471.24 245.782 471.288 245.643C474.301 236.68 475.497 232.015 466.788 232.102H200.288C191.303 231.923 192.488 236.592 195.535 245.639C195.58 245.782 196.818 255.408 196.862 255.546Z" fill="#646464"/>
</g>
<g id="Vector_45" style="mix-blend-mode:overlay">
<path d="M195.656 274.8C197.153 270.141 197.259 265.147 195.961 260.429C195.827 260.915 195.696 261.401 195.533 261.88C193.178 268.886 191.934 273.265 195.656 274.8Z" fill="#646464"/>
</g>
</g>
<path id="Vector_46" d="M199.745 278.427C197.139 278.427 193.56 278.06 191.58 275.334C189.029 271.816 190.725 266.77 192.689 260.928C194.263 256.285 194.263 251.254 192.689 246.611C190.721 240.757 189.025 235.711 191.576 232.193C193.625 229.372 197.413 229.069 200.038 229.101H466.808C469.452 229.073 473.194 229.371 475.242 232.193C477.794 235.711 476.098 240.757 474.134 246.599C472.56 251.242 472.56 256.273 474.134 260.916C476.103 266.77 477.799 271.816 475.247 275.333C473.203 278.15 469.435 278.473 466.799 278.426H199.745V278.427ZM199.83 235.1C197.415 235.1 196.564 235.543 196.437 235.718C195.701 236.731 197.508 242.105 198.376 244.687C200.371 250.577 200.371 256.961 198.376 262.851C197.512 265.422 195.705 270.796 196.441 271.809C196.571 271.988 197.441 272.462 199.991 272.426H467.021C469.412 272.426 470.264 271.983 470.391 271.808C471.126 270.795 469.319 265.422 468.45 262.839C466.455 256.949 466.455 250.565 468.45 244.675C469.315 242.104 471.121 236.73 470.386 235.717C470.256 235.537 469.363 235.065 466.835 235.1H199.83Z" fill="#474747"/>
<path id="Vector_47" d="M459.065 232.1H207.758L210.218 223.332C214.143 209.344 227.511 199.607 242.79 199.607H424.033C439.312 199.607 452.68 209.344 456.605 223.332L459.065 232.1Z" fill="#D6D6D4"/>
<path id="Vector_48" d="M459.065 232.1H207.758L210.218 223.332C214.143 209.344 227.511 199.607 242.79 199.607H424.033C439.312 199.607 452.68 209.344 456.605 223.332L459.065 232.1Z" fill="#D6D6D4"/>
<path id="Vector_49" d="M260.494 209.963L431.977 209.911C444.377 209.911 452.016 218.842 455.428 219.935C449.377 210.848 435.828 199.609 424.033 199.609H242.79C227.511 199.609 214.143 209.346 210.218 223.334L207.758 232.102H229.558C234.812 220.54 246.893 209.963 260.494 209.963Z" fill="white"/>
<path id="Vector_50" d="M459.066 235.1H207.758C207.295 235.1 206.838 234.993 206.423 234.787C206.008 234.581 205.647 234.282 205.367 233.913C205.087 233.544 204.897 233.115 204.81 232.66C204.724 232.205 204.744 231.736 204.869 231.29L207.329 222.522C211.611 207.265 226.193 196.608 242.79 196.608H424.033C440.633 196.608 455.213 207.265 459.494 222.522L461.954 231.29C462.079 231.736 462.099 232.205 462.013 232.659C461.926 233.114 461.736 233.543 461.456 233.912C461.176 234.281 460.815 234.58 460.4 234.787C459.986 234.993 459.529 235.1 459.066 235.1V235.1ZM211.716 229.1H455.108L453.717 224.143C450.159 211.464 437.953 202.608 424.033 202.608H242.79C228.87 202.608 216.664 211.464 213.107 224.143L211.716 229.1Z" fill="#474747"/>
<path id="Vector_51" d="M354.419 179.752H396.119C399.686 179.752 403.107 181.169 405.63 183.691C408.152 186.212 409.57 189.633 409.571 193.2V199.605H340.971V193.2C340.972 189.634 342.389 186.214 344.911 183.692C347.433 181.17 350.853 179.753 354.419 179.752V179.752Z" fill="#D6D6D4"/>
<path id="Vector_52" d="M354.419 179.752H396.119C399.686 179.752 403.107 181.169 405.63 183.691C408.152 186.212 409.57 189.633 409.571 193.2V199.605H340.971V193.2C340.972 189.634 342.389 186.214 344.911 183.692C347.433 181.17 350.853 179.753 354.419 179.752V179.752Z" fill="#D6D6D4"/>
<path id="Vector_53" d="M341.083 199.394C341.083 195.995 342.433 192.735 344.837 190.331C347.241 187.927 350.501 186.577 353.9 186.577H396.87C399.985 186.579 402.992 187.715 405.329 189.773C407.667 191.831 409.174 194.671 409.57 197.76V192.569C409.57 189.17 408.22 185.91 405.816 183.506C403.412 181.102 400.152 179.752 396.753 179.752H353.785C352.102 179.752 350.435 180.083 348.88 180.727C347.325 181.371 345.912 182.315 344.721 183.506C343.531 184.696 342.587 186.109 341.943 187.664C341.299 189.219 340.967 190.886 340.967 192.569V199.609H341.083V199.394Z" fill="white"/>
<path id="Vector_54" d="M325.275 434.407C314.652 434.407 295.514 426.907 289.335 406.79C286.396 398.486 285.473 389.602 286.64 380.871C287.808 372.14 291.033 363.811 296.051 356.571C303.431 345.993 313.526 339.926 323.746 339.926C326.902 339.932 330.032 340.505 332.986 341.617L333.133 341.673L333.271 341.75C335.397 342.95 336.611 344.359 336.982 346.055C337.614 348.944 335.654 351.66 333.172 355.099C328.193 361.999 321.372 371.448 328.072 388.889C335.84 409.102 335.883 428.277 331.064 432.844C329.97 433.882 328.022 434.407 325.275 434.407Z" fill="#AE6161"/>
<path id="Vector_55" d="M409.571 202.609H340.971C340.175 202.609 339.412 202.293 338.85 201.73C338.287 201.168 337.971 200.405 337.971 199.609V193.209C337.976 188.847 339.711 184.665 342.795 181.581C345.879 178.497 350.061 176.762 354.423 176.757H396.123C400.483 176.763 404.662 178.497 407.745 181.579C410.828 184.662 412.564 188.84 412.571 193.2V199.6C412.572 199.995 412.495 200.386 412.345 200.751C412.195 201.116 411.974 201.448 411.695 201.727C411.417 202.007 411.086 202.228 410.721 202.38C410.357 202.531 409.966 202.609 409.571 202.609ZM343.971 196.609H406.571V193.209C406.568 190.438 405.466 187.781 403.506 185.822C401.547 183.862 398.89 182.76 396.119 182.757H354.419C351.649 182.76 348.994 183.861 347.035 185.818C345.075 187.776 343.972 190.43 343.967 193.2L343.971 196.609Z" fill="#474747"/>
<path id="Vector_56" d="M352.773 434.144C350.918 434.174 349.076 433.825 347.36 433.119C345.644 432.412 344.091 431.362 342.795 430.034C341.744 428.931 340.934 427.621 340.415 426.189C339.896 424.757 339.679 423.232 339.779 421.712C340.307 413.732 337.584 406.099 334.951 398.719C332.551 391.989 330.283 385.633 330.268 379.014C330.21 354.649 346.554 346.928 348.568 346.068C349.892 345.284 351.406 344.88 352.944 344.9C359.444 344.9 367.414 351.3 373.244 361.194C378.323 369.909 381.028 379.803 381.087 389.89C381.147 399.976 378.559 409.902 373.583 418.676C368.135 428.507 360.549 434.144 352.771 434.144H352.773Z" fill="#AE6161"/>
<path id="Vector_57" d="M333.286 340.491C345.078 347.157 315.202 355.366 327.208 386.607C335.408 407.941 334.208 425.061 330.69 428.391C327.172 431.721 299.747 427.744 292.231 403.152C279.827 369.437 306.8 330.607 333.286 340.491Z" fill="#F6F9E4"/>
<path id="Vector_58" d="M350.484 344.856C350.484 344.856 333.21 351.666 333.268 376.008C333.3 389.617 343.804 403.267 342.776 418.844C342.062 429.663 360.589 436.805 372.837 414.706C394.419 375.765 362.431 337.311 350.484 344.856Z" fill="#F6F9E4"/>
<path id="Vector_59" d="M322.216 481.963C317.606 486.387 317.388 495.433 321.497 498.797C322.614 499.706 324.013 500.199 325.453 500.192C329.253 500.08 332.201 495.939 333.079 492.492C334.454 487.1 331.549 480.25 327.54 479.615C325.068 479.225 322.9 481.309 322.216 481.963ZM328.331 491.919C328.226 492.219 327.589 493.998 326.245 494.185C325.931 494.206 325.615 494.163 325.318 494.058C325.021 493.953 324.749 493.788 324.518 493.574C323.306 492.474 323.383 489.943 324.626 487.243C325.397 486.017 325.982 485.775 326.389 485.804C327.776 485.9 329.255 489.328 328.331 491.919Z" fill="#F6F9E4"/>
<path id="Vector_60" d="M334.41 511.854C332.276 510.421 334.094 507.281 335.31 480.093C335.647 472.593 337.221 465.782 341.133 463.077C342.749 461.825 344.779 461.231 346.815 461.416C347.921 461.536 348.957 462.016 349.762 462.784C351.638 464.676 351.03 467.546 350.962 467.826C350.018 467.298 348.927 467.096 347.857 467.25C346.654 467.539 345.569 468.192 344.751 469.12C340.951 473.257 341.387 490.415 341.387 490.415C341.754 504.677 342.487 509.672 339.705 511.715C338.934 512.257 338.02 512.558 337.078 512.583C336.137 512.608 335.208 512.354 334.41 511.854V511.854Z" fill="#F6F9E4"/>
<path id="Vector_61" d="M345.77 511.559C343.923 510.318 345.497 507.598 346.555 484.046C346.847 477.546 348.21 471.646 351.598 469.306C352.998 468.221 354.757 467.707 356.521 467.867C357.479 467.97 358.377 468.387 359.074 469.052C359.577 469.647 359.934 470.353 360.115 471.111C360.297 471.87 360.297 472.66 360.117 473.419C359.299 472.962 358.354 472.787 357.427 472.919C356.385 473.169 355.445 473.735 354.737 474.539C351.437 478.122 351.823 492.985 351.823 492.985C352.14 505.34 352.772 509.667 350.366 511.432C349.698 511.904 348.905 512.168 348.087 512.19C347.27 512.213 346.463 511.993 345.77 511.559V511.559Z" fill="#F6F9E4"/>
<path id="Vector_62" d="M362.647 498.442C362.151 498.584 361.632 498.623 361.121 498.557C360.61 498.491 360.117 498.321 359.674 498.058C357.574 496.538 358.239 491.211 360.921 488.178C361.295 487.755 363.67 485.158 365.721 485.878C366.076 485.982 366.397 486.179 366.65 486.449C366.903 486.719 367.079 487.052 367.16 487.413C367.283 489.066 363.795 491.019 360.637 491.249C359.3 491.34 357.959 491.144 356.704 490.674C355.779 491.966 355.925 492.754 356.033 493.074C356.678 494.989 360.963 494.828 361.545 494.801C361.918 494.783 369.417 494.322 370.805 489.237C371.124 488.159 371.143 487.015 370.861 485.928C370.579 484.84 370.007 483.849 369.205 483.062C366.632 480.876 362.627 482.398 362.08 482.618C355.027 485.459 351.734 497.593 355.365 501.227C357.479 503.343 362.413 503.058 364.765 500.748C366.365 499.175 366.765 496.675 366.308 496.397C365.87 496.129 364.857 497.87 362.647 498.442Z" fill="#F6F9E4"/>
<path id="Vector_63" d="M377.7 499.687C377.259 499.813 376.797 499.848 376.342 499.79C375.887 499.731 375.449 499.58 375.054 499.346C373.178 497.984 373.921 493.295 376.164 490.557C376.509 490.135 378.171 488.105 379.532 488.557C379.875 488.696 380.168 488.935 380.373 489.243C380.578 489.551 380.687 489.913 380.684 490.283C380.626 491.876 377.924 493.068 375.908 493.283C374.717 493.401 373.515 493.225 372.408 492.771C371.585 493.92 371.715 494.621 371.808 494.904C372.308 496.393 375.247 496.555 376.708 496.44C379.328 496.24 383.174 494.682 384.226 491.148C384.358 490.701 385.152 487.854 383.519 485.998C381.766 484.004 378.28 484.367 376.264 485.198C370.414 487.617 367.621 497.852 371.084 501.409C373.068 503.446 377.453 503.654 379.57 501.729C381.03 500.402 381.354 498.112 380.942 497.859C380.564 497.629 379.662 499.178 377.7 499.687Z" fill="#F6F9E4"/>
<path id="Vector_64" d="M365.572 472.425C365.52 473.933 364.924 475.372 363.894 476.475C357.012 483.093 333.17 464.547 326.448 471.127C324.993 472.551 323.714 475.763 324.558 476.643C324.945 477.043 325.613 476.858 327.458 476.65C329.084 476.466 330.729 476.507 332.358 476.35C336.342 475.975 342.421 478.367 348.745 479.706C350.336 480.043 362.903 482.612 365.911 478.775C366.291 478.291 368.254 475.787 367.446 474.17L365.572 472.425Z" fill="#F6F9E4"/>
<path id="Vector_65" d="M295.6 474.941C299.864 477.01 301.292 478.447 304.089 478.106C306.308 477.836 309.168 476.474 309.989 473.933C310.313 472.933 310.503 471.167 309.557 470.193C308.115 468.707 304.657 469.693 302.7 470.712L302.507 470.812C293.85 475.533 291.097 494.345 298.095 500.164C299.097 501.031 300.28 501.662 301.558 502.011C302.837 502.36 304.177 502.417 305.48 502.179C305.885 502.079 309.415 501.147 310.28 497.958C310.505 497.143 310.538 496.286 310.376 495.456C310.213 494.626 309.86 493.844 309.344 493.174C308.06 491.637 306.17 491.617 306.215 491.088C306.261 490.54 308.345 489.81 310.184 490.288C313.737 491.204 316.513 496.655 315.603 501.415C314.918 504.297 313.148 506.804 310.663 508.415C308.901 509.655 306.881 510.481 304.755 510.829C302.629 511.178 300.451 511.041 298.385 510.429C291.631 508.373 288.976 501.569 288.409 500.117C283.504 487.55 292.737 470.356 304.165 466.736C305.007 466.47 311.188 464.512 313.806 467.475C316.034 469.997 314.78 475.061 312.294 477.911C309.543 481.065 305.461 481.304 304.428 481.364C302.568 481.411 300.716 481.118 298.961 480.501C293.861 479.062 293.527 477.467 290.711 477.048C285.3 476.242 281.94 481.448 280.16 480.117C278.584 478.939 279.304 473.425 282.27 471.676C285.236 469.927 290.022 472.236 295.6 474.941Z" fill="#F6F9E4"/>
<path id="Vector_66" d="M389.708 168.634C389.156 168.633 388.615 168.48 388.144 168.192C387.674 167.904 387.292 167.491 387.041 166.999C386.789 166.508 386.679 165.957 386.72 165.406C386.762 164.856 386.955 164.328 387.278 163.88C392.784 156.237 395.289 148.834 394.721 141.88C394.196 135.443 391.29 131.334 387.926 126.58C384.4 121.592 380.403 115.938 379.237 107.029C377.508 93.829 383.182 82.862 385.047 79.261C389.018 71.59 393.769 67.287 398.364 63.127C402.041 60.0212 405.347 56.5024 408.219 52.64C408.448 52.3193 408.737 52.0467 409.072 51.8379C409.406 51.6291 409.778 51.4882 410.166 51.4231C410.555 51.3581 410.952 51.3702 411.336 51.4588C411.72 51.5474 412.083 51.7108 412.404 51.9395C412.724 52.1683 412.997 52.458 413.206 52.7921C413.414 53.1262 413.555 53.4981 413.62 53.8867C413.685 54.2753 413.673 54.6728 413.585 55.0567C413.496 55.4406 413.333 55.8033 413.104 56.124C409.983 60.3383 406.389 64.1802 402.391 67.574C397.998 71.553 393.848 75.31 390.375 82.019C388.725 85.208 383.701 94.911 385.186 106.25C386.159 113.687 389.397 118.267 392.825 123.116C396.373 128.135 400.042 133.324 400.701 141.396C401.389 149.814 398.51 158.561 392.145 167.396C391.866 167.781 391.499 168.093 391.076 168.309C390.652 168.524 390.183 168.635 389.708 168.634V168.634Z" fill="#474747"/>
<path id="Vector_67" d="M409.574 118.19C409.056 118.191 408.547 118.057 408.096 117.802C407.645 117.548 407.267 117.181 407 116.737C402.694 109.583 400.748 102.379 401.217 95.323C401.986 83.751 408.903 76.578 416.225 68.983C420.986 64.046 425.907 58.94 429.575 52.2C436.417 39.624 437.5 23.351 432.794 3.83698C432.623 3.0692 432.76 2.26496 433.177 1.5975C433.593 0.930029 434.254 0.452733 435.019 0.26838C435.784 0.0840273 436.59 0.20738 437.265 0.611871C437.94 1.01636 438.428 1.66962 438.626 2.43098C443.693 23.431 442.42 41.144 434.845 55.067C430.79 62.52 425.345 68.167 420.545 73.147C413.722 80.224 407.828 86.337 407.204 95.722C406.819 101.529 408.48 107.559 412.142 113.643C412.416 114.098 412.564 114.617 412.571 115.148C412.579 115.679 412.445 116.203 412.184 116.665C411.923 117.128 411.543 117.512 411.085 117.78C410.626 118.048 410.105 118.19 409.574 118.19V118.19Z" fill="#474747"/>
<path id="Vector_68" d="M366.378 92.8C365.582 92.8 364.819 92.4839 364.257 91.9213C363.694 91.3587 363.378 90.5956 363.378 89.8C363.378 76.18 375.578 61.786 376.101 61.181C376.626 60.604 377.355 60.2542 378.133 60.2057C378.912 60.1571 379.678 60.4136 380.271 60.9208C380.863 61.428 381.235 62.146 381.307 62.9226C381.379 63.6992 381.146 64.4734 380.657 65.081V65.081C380.544 65.213 369.378 78.408 369.378 89.797C369.378 90.1912 369.301 90.5816 369.151 90.9459C369 91.3103 368.779 91.6413 368.5 91.9202C368.222 92.1991 367.891 92.4204 367.527 92.5713C367.163 92.7223 366.772 92.8 366.378 92.8V92.8Z" fill="#474747"/>
</g>
</g>
</svg>
