<svg width="522" height="606" viewBox="0 0 522 606" fill="none" xmlns="http://www.w3.org/2000/svg">
<g id="Group 1">
<g id="map and map-marker-alt together 1">
<path id="Vector" d="M522 0H0V507H522V0Z" fill="white"/>
<g id="map and map marker alt together">
<g id="map 1">
<g id="Vector_2">
<path d="M18.434 87.5493L18.2338 87.0911L18.434 87.5493L144.5 32.4517V411.628L19.6716 473.711C10.5432 477.687 0.5 470.365 0.5 459.449V116.511C0.50127 110.268 2.21435 104.172 5.41399 99.0099C8.61341 93.8477 13.1503 89.8585 18.434 87.5493ZM174.5 32.4017L347.5 95.4125V474.598L174.5 411.587V32.4017ZM377.5 474.548V95.3723L502.328 33.2894C511.457 29.3132 521.5 36.6353 521.5 47.5511V390.489C521.5 396.732 519.787 402.828 516.588 407.991C513.388 413.154 508.851 417.143 503.566 419.451L377.5 474.548Z" fill="url(#paint0_linear)"/>
<path d="M18.434 87.5493L18.2338 87.0911L18.434 87.5493ZM18.434 87.5493L144.5 32.4517V411.628L19.6716 473.711C10.5432 477.687 0.5 470.365 0.5 459.449V116.511C0.50127 110.268 2.21435 104.172 5.41399 99.0099C8.61341 93.8477 13.1503 89.8585 18.434 87.5493ZM174.5 32.4017L347.5 95.4125V474.598L174.5 411.587V32.4017ZM377.5 474.548V95.3723L502.328 33.2894C511.457 29.3132 521.5 36.6353 521.5 47.5511V390.489C521.5 396.732 519.787 402.828 516.588 407.991C513.388 413.154 508.851 417.143 503.566 419.451L377.5 474.548Z" stroke="url(#paint1_linear)" stroke-linejoin="bevel"/>
</g>
</g>
<g id="map marker alt 1">
<path id="full stracture" d="M267.711 277.467C243.495 246.2 239 242.991 239 231.5C239 215.76 253.327 203 271 203C288.673 203 303 215.76 303 231.5C303 242.991 298.505 246.2 274.289 277.467C272.7 279.511 269.3 279.511 267.711 277.467ZM271 243.375C278.364 243.375 283.333 238.058 283.333 231.5C283.333 224.942 278.364 219.625 271 219.625C263.636 219.625 257.667 224.942 257.667 231.5C257.667 238.058 263.636 243.375 271 243.375Z" fill="url(#paint2_linear)"/>
</g>
</g>
</g>
<path id="Loading map..." d="M144.094 591V566.232H147.19V588.012H158.746V591H144.094ZM170.269 591.288C167.701 591.288 165.865 591.036 164.761 590.532C163.657 590.004 162.949 589.128 162.637 587.904C162.349 586.656 162.205 584.628 162.205 581.82C162.205 579.012 162.349 576.996 162.637 575.772C162.949 574.524 163.657 573.648 164.761 573.144C165.865 572.616 167.701 572.352 170.269 572.352C172.813 572.352 174.637 572.616 175.741 573.144C176.845 573.648 177.541 574.524 177.829 575.772C178.141 576.996 178.297 579.012 178.297 581.82C178.297 584.628 178.141 586.656 177.829 587.904C177.541 589.128 176.845 590.004 175.741 590.532C174.637 591.036 172.813 591.288 170.269 591.288ZM170.269 588.624C172.021 588.624 173.233 588.468 173.905 588.156C174.577 587.844 174.985 587.28 175.129 586.464C175.297 585.624 175.381 584.076 175.381 581.82C175.381 579.564 175.297 578.028 175.129 577.212C174.985 576.372 174.577 575.796 173.905 575.484C173.233 575.172 172.021 575.016 170.269 575.016C168.517 575.016 167.293 575.172 166.597 575.484C165.925 575.796 165.505 576.372 165.337 577.212C165.193 578.028 165.121 579.564 165.121 581.82C165.121 584.076 165.193 585.624 165.337 586.464C165.505 587.28 165.925 587.844 166.597 588.156C167.293 588.468 168.517 588.624 170.269 588.624ZM188.671 591.288C186.559 591.288 185.023 590.904 184.063 590.136C183.103 589.344 182.623 587.952 182.623 585.96C182.623 584.544 182.791 583.44 183.127 582.648C183.463 581.856 184.027 581.28 184.819 580.92C185.635 580.56 186.775 580.38 188.239 580.38C188.935 580.38 191.227 580.44 195.115 580.56V579.48C195.115 578.04 194.971 577.02 194.683 576.42C194.419 575.82 193.915 575.436 193.171 575.268C192.451 575.1 191.215 575.016 189.463 575.016C188.695 575.016 187.723 575.064 186.547 575.16C185.395 575.232 184.495 575.316 183.847 575.412V572.856C185.743 572.52 187.963 572.352 190.507 572.352C192.667 572.352 194.275 572.58 195.331 573.036C196.411 573.468 197.131 574.188 197.491 575.196C197.851 576.18 198.031 577.62 198.031 579.516V591H195.403L195.259 588.444H195.043C194.539 589.596 193.723 590.364 192.595 590.748C191.491 591.108 190.183 591.288 188.671 591.288ZM189.787 588.66C190.987 588.66 191.959 588.552 192.703 588.336C193.471 588.12 194.023 587.7 194.359 587.076C194.863 586.212 195.115 585.012 195.115 583.476V582.648H188.995C187.987 582.648 187.243 582.72 186.763 582.864C186.307 583.008 185.983 583.296 185.791 583.728C185.599 584.136 185.503 584.784 185.503 585.672C185.503 586.536 185.611 587.172 185.827 587.58C186.043 587.988 186.439 588.276 187.015 588.444C187.615 588.588 188.539 588.66 189.787 588.66ZM210.318 591.288C208.494 591.288 207.102 591.012 206.142 590.46C205.182 589.908 204.498 588.972 204.09 587.652C203.706 586.308 203.514 584.376 203.514 581.856C203.514 579.312 203.706 577.368 204.09 576.024C204.474 574.68 205.134 573.732 206.07 573.18C207.03 572.628 208.41 572.352 210.21 572.352C211.794 572.352 213.066 572.544 214.026 572.928C215.01 573.312 215.73 573.984 216.186 574.944H216.402V564.252H219.318V591H216.69L216.582 588.444H216.366C215.862 589.548 215.094 590.304 214.062 590.712C213.03 591.096 211.782 591.288 210.318 591.288ZM211.434 588.48C212.682 588.48 213.666 588.324 214.386 588.012C215.106 587.676 215.598 587.16 215.862 586.464C216.102 585.912 216.246 585.288 216.294 584.592C216.366 583.872 216.402 582.888 216.402 581.64C216.402 580.608 216.366 579.756 216.294 579.084C216.222 578.412 216.09 577.836 215.898 577.356C215.61 576.612 215.094 576.072 214.35 575.736C213.63 575.376 212.634 575.196 211.362 575.196C209.85 575.196 208.758 575.352 208.086 575.664C207.438 575.952 206.994 576.54 206.754 577.428C206.538 578.316 206.43 579.78 206.43 581.82C206.43 583.908 206.538 585.396 206.754 586.284C206.994 587.172 207.438 587.76 208.086 588.048C208.758 588.336 209.874 588.48 211.434 588.48ZM225.467 567.6V564.252H228.563V567.6H225.467ZM225.575 591V572.64H228.491V591H225.575ZM247.136 580.668C247.136 578.964 247.028 577.752 246.812 577.032C246.596 576.288 246.188 575.796 245.588 575.556C244.988 575.316 243.98 575.196 242.564 575.196C241.052 575.196 239.936 575.436 239.216 575.916C238.52 576.396 238.076 577.056 237.884 577.896C237.716 578.736 237.632 579.948 237.632 581.532V591H234.716V572.64H237.308L237.452 575.232H237.668C238.076 574.296 238.748 573.588 239.684 573.108C240.62 572.604 241.976 572.352 243.752 572.352C245.528 572.352 246.86 572.604 247.748 573.108C248.66 573.612 249.272 574.368 249.584 575.376C249.896 576.36 250.052 577.74 250.052 579.516V591H247.136V580.668ZM262.963 598.416C260.419 598.416 258.259 598.308 256.483 598.092V595.536C258.787 595.68 260.743 595.752 262.351 595.752C264.199 595.752 265.531 595.584 266.347 595.248C267.187 594.912 267.727 594.312 267.967 593.448C268.231 592.608 268.363 591.252 268.363 589.38V588.588H268.183C267.727 589.524 267.007 590.196 266.023 590.604C265.063 590.988 263.815 591.18 262.279 591.18C260.431 591.18 259.027 590.916 258.067 590.388C257.107 589.836 256.435 588.9 256.051 587.58C255.667 586.26 255.475 584.34 255.475 581.82C255.475 579.276 255.667 577.344 256.051 576.024C256.459 574.68 257.143 573.732 258.103 573.18C259.063 572.628 260.455 572.352 262.279 572.352C263.743 572.352 264.991 572.556 266.023 572.964C267.079 573.372 267.847 574.128 268.327 575.232H268.543L268.651 572.64H271.279V588.66C271.279 591.252 271.087 593.208 270.703 594.528C270.343 595.848 269.575 596.82 268.399 597.444C267.223 598.092 265.411 598.416 262.963 598.416ZM263.395 588.372C264.595 588.372 265.543 588.228 266.239 587.94C266.959 587.628 267.463 587.16 267.751 586.536C267.991 586.008 268.147 585.384 268.219 584.664C268.315 583.944 268.363 582.984 268.363 581.784C268.363 580.56 268.327 579.612 268.255 578.94C268.207 578.244 268.063 577.656 267.823 577.176C267.511 576.456 266.995 575.94 266.275 575.628C265.555 575.316 264.595 575.16 263.395 575.16C261.859 575.16 260.755 575.316 260.083 575.628C259.411 575.916 258.955 576.504 258.715 577.392C258.499 578.256 258.391 579.72 258.391 581.784C258.391 583.824 258.499 585.288 258.715 586.176C258.955 587.04 259.411 587.628 260.083 587.94C260.755 588.228 261.859 588.372 263.395 588.372ZM308.617 580.668C308.617 578.94 308.521 577.716 308.329 576.996C308.161 576.276 307.813 575.796 307.285 575.556C306.757 575.316 305.869 575.196 304.621 575.196C303.277 575.196 302.293 575.424 301.669 575.88C301.045 576.336 300.649 576.984 300.481 577.824C300.313 578.664 300.229 579.9 300.229 581.532V591H297.313V580.668C297.313 578.94 297.217 577.716 297.025 576.996C296.857 576.276 296.509 575.796 295.981 575.556C295.453 575.316 294.565 575.196 293.317 575.196C291.973 575.196 290.989 575.436 290.365 575.916C289.741 576.372 289.345 577.032 289.177 577.896C289.009 578.736 288.925 579.948 288.925 581.532V591H286.009V572.64H288.601L288.745 575.232H288.961C289.321 574.296 289.933 573.588 290.797 573.108C291.685 572.604 292.933 572.352 294.541 572.352C296.125 572.352 297.325 572.58 298.141 573.036C298.957 573.492 299.521 574.224 299.833 575.232H300.085C300.853 573.312 302.761 572.352 305.809 572.352C307.417 572.352 308.629 572.604 309.445 573.108C310.261 573.612 310.813 574.368 311.101 575.376C311.389 576.36 311.533 577.74 311.533 579.516V591H308.617V580.668ZM322.686 591.288C320.574 591.288 319.038 590.904 318.078 590.136C317.118 589.344 316.638 587.952 316.638 585.96C316.638 584.544 316.806 583.44 317.142 582.648C317.478 581.856 318.042 581.28 318.834 580.92C319.65 580.56 320.79 580.38 322.254 580.38C322.95 580.38 325.242 580.44 329.13 580.56V579.48C329.13 578.04 328.986 577.02 328.698 576.42C328.434 575.82 327.93 575.436 327.186 575.268C326.466 575.1 325.23 575.016 323.478 575.016C322.71 575.016 321.738 575.064 320.562 575.16C319.41 575.232 318.51 575.316 317.862 575.412V572.856C319.758 572.52 321.978 572.352 324.522 572.352C326.682 572.352 328.29 572.58 329.346 573.036C330.426 573.468 331.146 574.188 331.506 575.196C331.866 576.18 332.046 577.62 332.046 579.516V591H329.418L329.274 588.444H329.058C328.554 589.596 327.738 590.364 326.61 590.748C325.506 591.108 324.198 591.288 322.686 591.288ZM323.802 588.66C325.002 588.66 325.974 588.552 326.718 588.336C327.486 588.12 328.038 587.7 328.374 587.076C328.878 586.212 329.13 585.012 329.13 583.476V582.648H323.01C322.002 582.648 321.258 582.72 320.778 582.864C320.322 583.008 319.998 583.296 319.806 583.728C319.614 584.136 319.518 584.784 319.518 585.672C319.518 586.536 319.626 587.172 319.842 587.58C320.058 587.988 320.454 588.276 321.03 588.444C321.63 588.588 322.554 588.66 323.802 588.66ZM338.321 572.64H340.913L341.057 575.232H341.273C341.753 574.128 342.509 573.372 343.541 572.964C344.597 572.556 345.857 572.352 347.321 572.352C349.145 572.352 350.537 572.628 351.497 573.18C352.457 573.732 353.129 574.68 353.513 576.024C353.921 577.344 354.125 579.264 354.125 581.784C354.125 584.328 353.921 586.272 353.513 587.616C353.129 588.96 352.457 589.908 351.497 590.46C350.561 591.012 349.193 591.288 347.393 591.288C345.833 591.288 344.561 591.096 343.577 590.712C342.617 590.328 341.897 589.656 341.417 588.696H341.237V598.2H338.321V572.64ZM346.169 588.444C347.729 588.444 348.833 588.3 349.481 588.012C350.153 587.724 350.597 587.136 350.813 586.248C351.053 585.36 351.173 583.884 351.173 581.82C351.173 579.756 351.053 578.28 350.813 577.392C350.597 576.504 350.153 575.916 349.481 575.628C348.833 575.316 347.729 575.16 346.169 575.16C344.945 575.16 343.973 575.328 343.253 575.664C342.533 576 342.029 576.516 341.741 577.212C341.525 577.74 341.381 578.352 341.309 579.048C341.261 579.744 341.237 580.668 341.237 581.82C341.237 582.996 341.261 583.92 341.309 584.592C341.357 585.264 341.477 585.828 341.669 586.284C341.981 587.052 342.497 587.604 343.217 587.94C343.937 588.276 344.921 588.444 346.169 588.444ZM358.763 591V587.328H362.183V591H358.763ZM366.779 591V587.328H370.199V591H366.779ZM374.794 591V587.328H378.214V591H374.794Z" fill="#A79C9C"/>
</g>
<defs>
<linearGradient id="paint0_linear" x1="475" y1="32" x2="7.00001" y2="475" gradientUnits="userSpaceOnUse">
<animate attributeName="x1" from="475" type="fade" to="-100" dur="1.5s" repeatCount="indefinite" />
<animate attributeName="x1" from="-100" type="fade" to="475" dur="1.5s" repeatCount="indefinite" />
<stop offset="0.0833333" stop-color="#736E6E"/>
<stop offset="1" stop-color="#FFE1E1" stop-opacity="0"/>
</linearGradient>
<linearGradient id="paint1_linear" x1="261" y1="31.6875" x2="261" y2="475.312" gradientUnits="userSpaceOnUse">
<stop stop-color="#ECBEBE"/>
<stop offset="1" stop-color="white" stop-opacity="0"/>
</linearGradient>
<linearGradient id="paint2_linear" x1="291" y1="207.305" x2="273.879" y2="286.002" gradientUnits="userSpaceOnUse">
<stop offset="0.015625" stop-color="white"/>
<stop offset="0.104167" stop-color="white"/>
<stop offset="1" stop-color="#E37676" stop-opacity="0"/>
</linearGradient>
</defs>
</svg>
